<?xml version="1.0" standalone="no"?>
<!DOCTYPE svg PUBLIC "-//W3C//DTD SVG 20010904//EN"
 "http://www.w3.org/TR/2001/REC-SVG-20010904/DTD/svg10.dtd">
<svg version="1.0" xmlns="http://www.w3.org/2000/svg"
 width="3338.000000pt" height="3340.000000pt" viewBox="0 0 3338.000000 3340.000000"
 preserveAspectRatio="xMidYMid meet">

<g transform="translate(0.000000,3340.000000) scale(0.100000,-0.100000)"
fill="#000000" stroke="none">
<path d="M16017 33390 c-4375 -182 -8574 -2199 -11652 -5595 -2526 -2788
-4045 -6254 -4319 -9855 -55 -715 -55 -1551 0 -2370 245 -3693 1646 -6980
4190 -9835 1188 -1333 2463 -2404 3897 -3274 2009 -1217 4314 -1999 6860
-2326 321 -41 872 -100 1079 -114 558 -41 1743 44 2747 195 751 113 1535 283
2241 485 2961 851 5467 2321 7515 4410 2575 2627 4121 5745 4624 9329 185
1316 224 2564 116 3730 -181 1944 -710 3822 -1565 5555 -749 1517 -1719 2934
-2858 4174 -195 212 -836 848 -1052 1043 -1090 985 -2259 1805 -3582 2511
-1387 742 -2783 1260 -4259 1581 -847 184 -1687 295 -2639 346 -259 14 -1094
20 -1343 10z m958 -1895 c904 -118 1664 -590 2164 -1344 259 -392 420 -822
488 -1306 25 -181 25 -608 0 -780 -38 -257 -102 -493 -192 -716 -347 -852
-1074 -1535 -1930 -1812 -487 -158 -989 -185 -1504 -82 -1247 250 -2211 1233
-2420 2468 -61 360 -51 783 29 1150 198 911 808 1701 1640 2121 363 184 712
281 1150 320 94 8 460 -3 575 -19z m5873 -4249 c268 -55 488 -160 828 -397
1127 -785 2097 -1681 2878 -2659 1095 -1370 1865 -2926 2287 -4624 125 -505
180 -831 244 -1456 124 -1217 91 -2276 -111 -3595 -163 -1065 -412 -1949 -790
-2805 -98 -223 -423 -870 -560 -1115 -913 -1637 -2057 -2964 -3449 -4000
-1445 -1076 -3041 -1783 -4866 -2154 -728 -148 -1358 -231 -2154 -283 -249
-16 -1160 -16 -1410 0 -944 61 -1726 187 -2508 402 -751 206 -1378 447 -2087
801 -889 445 -1671 964 -2475 1644 -514 435 -1055 972 -1494 1484 -1149 1341
-2000 2934 -2499 4681 -251 877 -392 1701 -463 2710 -17 245 -23 1053 -10
1310 118 2295 798 4383 2036 6255 873 1319 1940 2421 3280 3386 337 243 525
340 763 395 515 117 981 -90 1320 -589 99 -146 227 -371 486 -860 124 -235
240 -450 257 -478 17 -29 49 -89 71 -133 70 -140 63 -255 -21 -349 -20 -22
-101 -94 -181 -160 -715 -593 -1184 -1169 -1540 -1892 -487 -989 -680 -2166
-514 -3145 132 -785 491 -1523 1075 -2212 126 -148 440 -454 589 -573 754
-604 1648 -938 2660 -994 103 -6 966 -13 1940 -16 1836 -7 2074 -3 2447 35
232 24 256 24 368 5 108 -19 190 -51 315 -122 515 -293 845 -741 965 -1313 37
-172 46 -453 20 -632 -38 -275 -156 -633 -464 -1404 -161 -405 -794 -1909
-811 -1927 -4 -4 -18 7 -31 25 -14 18 -315 566 -669 1218 -686 1264 -707 1300
-812 1457 -234 350 -522 582 -858 692 -550 179 -1101 49 -1536 -362 -152 -144
-270 -304 -436 -592 -142 -245 -200 -358 -1641 -3180 -143 -280 -271 -525
-284 -542 -37 -50 -58 -58 -96 -34 -18 11 -49 42 -69 69 -36 47 -741 1304
-2503 4462 -1115 1999 -1327 2387 -1589 2904 -378 746 -586 1460 -673 2306
-26 250 -25 985 0 1245 86 863 281 1642 600 2390 30 72 62 154 71 184 30 102
15 202 -30 209 -26 4 -92 -67 -240 -252 -269 -339 -514 -736 -808 -1307 -825
-1608 -1239 -3372 -1186 -5059 64 -2028 727 -3982 1904 -5615 530 -734 1201
-1456 1884 -2028 1098 -917 2349 -1581 3777 -2004 181 -54 195 -57 305 -57
111 -1 117 0 170 30 83 47 132 116 274 390 272 524 591 1125 1180 2224 155
289 302 572 327 628 74 173 134 223 223 183 53 -23 88 -72 163 -231 27 -58
219 -415 425 -795 425 -782 739 -1366 948 -1760 286 -542 298 -563 376 -618
130 -92 238 -89 625 23 489 140 1639 565 1815 671 31 19 87 67 125 106 78 83
82 91 384 718 746 1552 1151 2494 1547 3600 315 881 441 1536 442 2310 1 340
-8 482 -50 774 -77 538 -224 1009 -474 1516 -351 711 -806 1281 -1395 1749
-135 107 -408 290 -570 382 -526 297 -1185 520 -1700 574 -60 6 -121 14 -135
17 -14 3 -1055 9 -2315 13 -2510 7 -2338 3 -2637 66 -460 97 -783 325 -966
681 -202 393 -229 983 -65 1423 95 254 229 464 433 674 502 519 1108 757 2045
806 116 6 298 15 405 21 983 51 1927 298 2700 706 729 385 1335 895 1793 1508
237 317 393 578 681 1133 228 442 314 572 485 742 216 213 475 348 761 395
105 18 371 12 478 -9z"/>
<path d="M22585 24592 c-58 -27 -131 -112 -230 -269 -606 -955 -1286 -1618
-2363 -2305 -227 -145 -242 -156 -242 -173 0 -28 75 -63 245 -115 1209 -369
2297 -1015 3097 -1839 1092 -1124 1791 -2687 1977 -4421 41 -381 46 -494 46
-1030 0 -518 -6 -654 -41 -1005 -111 -1115 -481 -2344 -1109 -3687 -83 -180
-87 -189 -72 -212 22 -33 60 -40 116 -21 63 21 83 39 276 263 623 721 983
1217 1360 1872 733 1275 1137 2612 1247 4135 20 278 17 1141 -5 1425 -77 986
-236 1789 -517 2615 -594 1742 -1703 3264 -3320 4559 -107 85 -223 170 -258
187 -80 39 -152 47 -207 21z"/>
</g>
</svg>
